<?xml version="1.0" encoding="UTF-8" standalone="no"?><!-- Generator: Gravit.io --><svg xmlns="http://www.w3.org/2000/svg" xmlns:xlink="http://www.w3.org/1999/xlink" style="isolation:isolate" viewBox="0 0 1644.094 1133.858" width="1644.094pt" height="1133.858pt"><defs><clipPath id="_clipPath_Ke3gjcVhFUi5HA2vZrdwck8n1ebqKGPC"><rect width="1644.094" height="1133.858"/></clipPath></defs><g clip-path="url(#_clipPath_Ke3gjcVhFUi5HA2vZrdwck8n1ebqKGPC)"><g><path d=" M 0.353 0 C 0.157 0 0 0.076 0 0.17 L 0 1133.688 C 0 1133.782 0.157 1133.858 0.353 1133.858 L 1643.741 1133.858 C 1643.937 1133.858 1644.094 1133.782 1644.094 1133.688 L 1644.094 0.17 C 1644.094 0.076 1643.937 0 1643.741 0 L 0.353 0 Z " fill="rgb(0,68,29)"/><path d=" M 214.138 0 C 137.149 24.297 65.334 53.142 0 86.01 L 0 1047.502 C 60.815 1078.286 127.298 1105.575 198.388 1128.938 C 203.439 1130.598 208.513 1132.238 213.61 1133.858 L 1429.96 1133.858 C 1506.948 1109.561 1578.762 1080.716 1644.094 1047.848 L 1644.094 86.355 C 1578.957 53.384 1507.318 24.423 1430.481 0 L 214.138 0 Z " fill="rgb(1,87,26)"/><path d=" M 322.935 0 C 202.894 31.194 93.649 73.403 0 124.772 L 0 1009.401 C 93.947 1060.7 203.479 1102.804 323.774 1133.858 L 1321.163 1133.858 C 1441.203 1102.664 1550.446 1060.455 1644.094 1009.086 L 1644.094 124.457 C 1550.147 73.158 1440.615 31.054 1320.319 0 L 322.935 0 Z " fill="rgb(2,71,26)"/><path d=" M 822.047 0.218 C 500.523 0.481 197.2 81.336 0 219.348 L 0 915.243 C 197.474 1052.98 500.754 1133.554 822.047 1133.641 C 1143.571 1133.379 1446.894 1052.523 1644.094 914.511 L 1644.094 218.615 C 1446.62 80.879 1143.34 0.305 822.047 0.218 L 822.047 0.218 Z " fill="rgb(0,100,28)"/><path d=" M 822.047 29.575 C 491.695 29.685 183.267 119.451 0 268.825 L 0 864.836 C 183.184 1014.286 491.625 1104.13 822.047 1104.284 C 1152.4 1104.174 1460.827 1014.409 1644.094 865.034 L 1644.094 269.022 C 1460.91 119.573 1152.469 29.729 822.047 29.575 L 822.047 29.575 Z " fill="rgb(2,129,24)"/><path d=" M 822.047 81.551 C 463.677 81.566 140.028 197.996 0 377.274 L 0 755.408 C 139.362 935.147 463.156 1052.092 822.047 1052.307 C 1180.417 1052.292 1504.066 935.863 1644.094 756.585 L 1644.094 378.452 C 1504.733 198.712 1180.939 81.766 822.047 81.551 L 822.047 81.551 Z " fill="rgb(1,118,3)"/><path d=" M 822.047 111.39 C 421.999 111.436 77.765 265.112 0 478.377 L 0 653.968 C 76.601 867.835 421.137 1022.281 822.047 1022.469 C 1222.096 1022.423 1566.329 868.747 1644.094 655.482 L 1644.094 479.891 C 1567.494 266.024 1222.958 111.578 822.047 111.39 L 822.047 111.39 Z " fill="rgb(37,141,20)"/><ellipse vector-effect="non-scaling-stroke" cx="822.0470574606862" cy="566.9294669820097" rx="757.4048351026005" ry="411.6245315854251" fill="rgb(51,144,3)"/><ellipse vector-effect="non-scaling-stroke" cx="822.0470574606865" cy="566.9294669820097" rx="703.3852115236721" ry="382.2674166245283" fill="rgb(96,163,24)"/><ellipse vector-effect="non-scaling-stroke" cx="822.0470574606865" cy="566.9294669820096" rx="628.5628618041053" ry="339.199630713225" fill="rgb(114,167,0)"/><ellipse vector-effect="non-scaling-stroke" cx="822.0470574606861" cy="566.9294129619436" rx="578.6813202089011" ry="312.2822420102997" fill="rgb(161,186,32)"/><ellipse vector-effect="non-scaling-stroke" cx="822.0471694409674" cy="566.9294129619434" rx="520.8187573406615" ry="281.0581035269456" fill="rgb(155,183,2)"/><ellipse vector-effect="non-scaling-stroke" cx="822.0471694409675" cy="566.9294129619437" rx="461.8553163282053" ry="254.10733042308823" fill="rgb(188,198,37)"/><ellipse vector-effect="non-scaling-stroke" cx="822.0470574606863" cy="566.9294669820097" rx="332.9805477380305" ry="207.9060025298055" fill="rgb(210,210,50)"/><ellipse vector-effect="non-scaling-stroke" cx="822.0470574606865" cy="566.9294669820098" rx="292.1235641907655" ry="182.39902373615806" fill="rgb(227,223,98)"/><ellipse vector-effect="non-scaling-stroke" cx="822.0471694409674" cy="566.9294669820098" rx="230.45264900939276" ry="143.8979123566388" fill="rgb(236,229,138)"/></g></g></svg>